<svg xmlns="http://www.w3.org/2000/svg" viewBox="0 0 100 100" width="100" height="100">
  <!-- Head -->
  <polygon points="50,22 45,28 50,34 55,28" fill="#e23636" />
  
  <!-- Body -->
  <polygon points="50,36 43,44 43,58 50,72 57,58 57,44" fill="#e23636" />
  
  <!-- Front/Top Legs -->
  <path d="M 46,38 L 30,22 L 32,10" fill="none" stroke="#e23636" stroke-width="2.5" stroke-linecap="round" stroke-linejoin="round" />
  <path d="M 54,38 L 70,22 L 68,10" fill="none" stroke="#e23636" stroke-width="2.5" stroke-linecap="round" stroke-linejoin="round" />

  <path d="M 45,44 L 24,32 L 22,18" fill="none" stroke="#e23636" stroke-width="2.5" stroke-linecap="round" stroke-linejoin="round" />
  <path d="M 55,44 L 76,32 L 78,18" fill="none" stroke="#e23636" stroke-width="2.5" stroke-linecap="round" stroke-linejoin="round" />

  <!-- Back/Bottom Legs -->
  <path d="M 45,54 L 22,62 L 20,78" fill="none" stroke="#e23636" stroke-width="2.5" stroke-linecap="round" stroke-linejoin="round" />
  <path d="M 55,54 L 78,62 L 80,78" fill="none" stroke="#e23636" stroke-width="2.5" stroke-linecap="round" stroke-linejoin="round" />

  <path d="M 47,62 L 32,78 L 34,92" fill="none" stroke="#e23636" stroke-width="2.5" stroke-linecap="round" stroke-linejoin="round" />
  <path d="M 53,62 L 68,78 L 66,92" fill="none" stroke="#e23636" stroke-width="2.5" stroke-linecap="round" stroke-linejoin="round" />
</svg>